<svg width="50" height="34" viewBox="0 0 50 34" fill="none" xmlns="http://www.w3.org/2000/svg">
<path d="M50 0H0V34H50V0Z" fill="white"/>
<path d="M49.0509 0.933594H0.966797V33.0324H49.0509V0.933594Z" fill="#034EA2"/>
<path d="M23.9744 7.92716L24.9917 7.18028L26.009 7.92716L25.619 6.72197L26.6532 5.99206H25.3816L24.9917 4.7699L24.6017 5.99206H23.3301L24.3643 6.72197L23.9744 7.92716Z" fill="#FFF200"/>
<path d="M18.7351 9.3361L19.7354 8.58922L20.7527 9.3361L20.3797 8.13091L21.397 7.401H20.1254L19.7354 6.17883L19.3455 7.401H18.0908L19.1081 8.13091L18.7351 9.3361Z" fill="#FFF200"/>
<path d="M15.9038 10.032L15.5138 11.2541H14.2422L15.2764 12.001L14.8865 13.1892L15.9038 12.4593L16.9211 13.1892L16.5311 12.001L17.5653 11.2541H16.2937L15.9038 10.032Z" fill="#FFF200"/>
<path d="M14.4965 17.7044L15.5138 18.4344L15.1239 17.2461L16.1581 16.4993H14.8865L14.4965 15.2941L14.1066 16.4993H12.835L13.8692 17.2461L13.4792 18.4344L14.4965 17.7044Z" fill="#FFF200"/>
<path d="M16.2937 21.7615L15.9038 20.5563L15.5138 21.7784L14.2422 21.7615L15.2764 22.5084L14.8865 23.7135L15.9038 22.9667L16.9211 23.7135L16.5311 22.5084L17.5653 21.7615H16.2937Z" fill="#FFF200"/>
<path d="M20.1424 25.6146L19.7524 24.4094L19.3624 25.6316L18.0908 25.6146L19.1251 26.3615L18.7351 27.5667L19.7524 26.8198L20.7697 27.5667L20.3797 26.3615L21.414 25.6146H20.1424Z" fill="#FFF200"/>
<path d="M25.3816 27.0236L24.9917 25.8014L24.6017 27.0236H23.3301L24.3643 27.7535L23.9744 28.9587L24.9917 28.2118L26.009 28.9587L25.619 27.7535L26.6532 27.0236H25.3816Z" fill="#FFF200"/>
<path d="M30.6205 25.6146L30.2475 24.4094L29.8576 25.6316L28.5859 25.6146L29.6032 26.3615L29.2302 27.5667L30.2475 26.8198L31.2479 27.5667L30.8748 26.3615L31.8921 25.6146H30.6205Z" fill="#FFF200"/>
<path d="M34.4861 21.7615L34.0962 20.5563L33.7062 21.7784L32.4346 21.7615L33.4688 22.5084L33.0789 23.7135L34.0962 22.9667L35.0965 23.7135L34.7235 22.5084L35.7408 21.7615H34.4861Z" fill="#FFF200"/>
<path d="M37.1484 16.4823H35.8767L35.4868 15.2771L35.0968 16.4823H33.8252L34.8594 17.2292L34.4695 18.4344L35.4868 17.6875L36.5041 18.4344L36.1141 17.2292L37.1484 16.4823Z" fill="#FFF200"/>
<path d="M33.0789 13.1723L34.0962 12.4424L35.0965 13.1723L34.7235 11.9841L35.7408 11.2372H34.4861L34.0962 10.015L33.7062 11.2372H32.4346L33.4688 11.9841L33.0789 13.1723Z" fill="#FFF200"/>
<path d="M30.2481 6.17883L29.8582 7.401H28.6035L29.6208 8.14788L29.2478 9.3361L30.2481 8.58922L31.2654 9.3361L30.8755 8.14788L31.9097 7.401H30.6381L30.2481 6.17883Z" fill="#FFF200"/>
</svg>
